<!-- public/image/haikei.svg -->
<svg xmlns="http://www.w3.org/2000/svg" width="96" height="96" viewBox="0 0 96 96">
  <!-- ぜんぶ不透明の白。濃さは stroke-width で調整してね -->
  <g fill="none" stroke="#ffffff" stroke-width="1.4" stroke-linecap="round" stroke-linejoin="round">
    <!-- 横方向にシームレスにつながるSカーブ（左右のタイルと連続） -->
    <path d="M0,48 C18,14 78,14 96,48"></path>
    <path d="M0,48 C18,82 78,82 96,48"></path>

    <!-- 縦方向にシームレスにつながるSカーブ（上下のタイルと連続） -->
    <path d="M48,0 C14,18 14,78 48,96"></path>
    <path d="M48,0 C82,18 82,78 48,96"></path>

    <!-- 内側の唐草カール（タイルの境界から少し内側に寄せて継ぎ目を目立たせない） -->
    <path d="M28,28 C38,20 50,20 58,28 C66,36 66,48 58,56 C50,64 38,64 30,56"></path>
    <path d="M68,28 C60,24 54,24 48,28 C40,34 40,44 48,50 C54,54 60,54 68,50"></path>

    <!-- 小さな渦（スパイラル風） -->
    <path d="M20,46 C24,40 32,40 36,46 C38,50 36,54 32,56 C28,58 24,56 22,52"></path>
    <path d="M76,50 C72,56 64,56 60,50 C58,46 60,42 64,40 C68,38 72,40 74,44"></path>

    <!-- 葉っぱ風ループ -->
    <path d="M34,36 C40,30 48,30 54,36 C48,42 40,42 34,36 Z"></path>
    <path d="M60,60 C66,54 74,54 80,60 C74,66 66,66 60,60 Z"></path>

    <!-- 中心の輪（唐草の節） -->
    <circle cx="48" cy="48" r="6"></circle>

    <!-- 角寄りの小輪（四隅の統一感） -->
    <circle cx="24" cy="24" r="4"></circle>
    <circle cx="72" cy="24" r="4"></circle>
    <circle cx="24" cy="72" r="4"></circle>
    <circle cx="72" cy="72" r="4"></circle>
  </g>
</svg>
