<?xml version="1.0" encoding="UTF-8"?>
<svg id="_レイヤー_2" data-name="レイヤー 2" xmlns="http://www.w3.org/2000/svg" viewBox="0 0 114.1 110.28" opacity="0.5">
  <defs>
    <style>
      .cls-1 {
        stroke: #000;
        stroke-miterlimit: 10;
      }
    </style>
  </defs>
  <g id="_レイヤー_1-2" data-name="レイヤー 1">
    <path class="cls-1" d="M67.51,.55C28-.22,.5,7.14,.5,51.29v58.49H15.61s-1.93-51.08,13.95-51.47l-.39,51.47h14.72l-.03-37.6h8.52l.03,37.6h14.72l-.03-37.6h8.52l.03,37.6h14.72l-.03-37.6h8.52l.03,37.6h14.72V54.39c0-22.47-6.58-53.06-46.09-53.84ZM18.54,40.19c-1.99,0-3.6-1.61-3.6-3.6s1.61-3.6,3.6-3.6,3.6,1.61,3.6,3.6-1.61,3.6-3.6,3.6Z"/>
  </g>
</svg>